<?xml version="1.0" encoding="UTF-8"?>
<svg id="Layer_1" data-name="Layer 1" xmlns="http://www.w3.org/2000/svg" viewBox="0 0 290.63 360">
  <defs>
    <style>
      .cls-1 {
        opacity: .06;
      }

      .cls-1, .cls-2 {
        fill: #222d5b;
      }

      .cls-3 {
        fill: #f9a46c;
      }

      .cls-4 {
        fill: #f1bcb5;
      }

      .cls-5 {
        fill: #f1bcb4;
      }

      .cls-6 {
        fill: #f2bcb2;
      }

      .cls-7 {
        fill: #e5b7ac;
      }

      .cls-8 {
        fill: #9196c6;
      }

      .cls-9 {
        fill: #d87238;
      }

      .cls-10 {
        fill: #231f20;
      }

      .cls-11 {
        fill: #223368;
      }

      .cls-12 {
        fill: #28397f;
      }

      .cls-13 {
        fill: #545f7f;
      }

      .cls-14 {
        fill: #757994;
      }

      .cls-15 {
        fill: #777a92;
      }

      .cls-16 {
        fill: #757576;
      }
    </style>
  </defs>
  <path class="cls-1" d="M193.86,323.28c.27,.44,.57,.88,.89,1.31l.93,.03c.52,4.05,2.9,4.31,6.05,2.98,2.11-.43,3.87,.25,5.58,1.11,1.07,.54,2.12,1.15,3.22,1.6,.8,.32,1.59,.65,2.39,.98,15.8,6.51,31.34,13.61,46.63,21.23-4.57,.36-8.97-.02-13.54-1.14-6.53-1.61-13.35-2.22-20.09-2.76-14.2-1.15-28.25-3.37-42.36-5.17-13.29-1.68-26.63-2.99-39.88-4.96-11.13-1.66-22.36-2.45-33.45-4.47-6.31-1.15-12.9-.7-19.18-2.45-24.36-3.53-48.99-5.01-73.22-10.04H93.25c.31,.17,.63,.34,.94,.51,.32,.18,.63,.35,.95,.52,3.49,.78,6.17,3.15,9.25,4.74,1.87,.97,3.62,1.69,5.54,.27,.54-.86,.69-1.59,.59-2.23-.21-1.53-1.78-2.6-2.66-3.91,2.48,.65,5.06,.27,7.67,.25,23.41-.13,46.84-.22,70.25,.08l5.96,.82,48.26,17.37-2.45,6.97-49.08-16.92,5.39-6.73Z"/>
  <g>
    <g>
      <path class="cls-13" d="M214.2,332c-1.93-.8-3.86-1.6-5.79-2.39-.37-.15-.74-.32-1.1-.5l6.89,2.89Z"/>
      <path class="cls-13" d="M262.32,333.07c.23,5.44,.09,10.9,.04,16.35-.03,2.78-.99,4.26-3.93,2.4h-1c-14.19-7.08-28.6-13.7-43.23-19.82l-6.89-2.89c-1.76-.87-3.45-1.96-5.38-2.26h0l-1.05-.44-9.13-3.83-1.46-51.31-.23-8.13c.08-1.19-.02-2.39-.09-3.6-.04-.56-.07-1.13-.07-1.69-.12-82.57-.18-165.13-.22-247.69-.01-5.15,.65-5.56,5.46-3.39,16.47,7.43,32.9,14.93,49.36,22.38,4.21,1.91,8.4,3.89,12.72,5.53,2.84,1.09,4.02,2.72,4.42,5.81,.49,3.81,.75,7.58,.75,11.4-.01,87.05,0,174.11-.01,261.17,0,2.64,.37,5.34-.94,7.83,1.95,3.93,.72,8.12,.89,12.18Z"/>
      <path class="cls-13" d="M189.96,259.54c.07,1.21,.17,2.41,.09,3.6l-.1-3.62v.02Z"/>
      <path class="cls-13" d="M207.31,329.11l-5.38-2.26c1.93,.3,3.62,1.39,5.38,2.26Z"/>
    </g>
    <polygon class="cls-13" points="262.38 266.05 262.38 338.24 248.91 335.25 262.38 266.05"/>
  </g>
  <path class="cls-8" d="M133.43,217.47c-.92,.09-1.83,.19-2.75,.28,.95-.16,1.87-.26,2.75-.28Z"/>
  <path class="cls-8" d="M157.43,215.3c-.12,.16-.25,.31-.4,.45-.06-.23-.12-.47-.19-.7,.22,.08,.41,.16,.59,.25Z"/>
  <path class="cls-11" d="M200.58,306.63c-.38,.08-.75,.16-1.13,.24-3.15,.67-5.53,2.02-8.69,2.69,0,0,.01-.33,0,0-2.94-.92-5.55-3.06-7.04-5.47-8.23-13.41-16.09-26.92-19.25-42.69-1.49-7.42-6.84-13.12-10.55-19.53-1.15-1.99-2.33-3.96-3.48-5.95-.43-.72-.84-1.44-1.25-2.17-1.29-1.71-2.35-3.58-3.49-5.39-2.91-4.61-5.48-9.59-12.32-8.76-.39,.05-.78-.02-1.14-.19-.66-.28-1.25-.88-1.56-1.66,.92-.09,1.83-.19,2.75-.28,.02-.01,.03-.01,.05-.01,2.3-.07,4.36,.28,6.19,1.07,1.87-.14,3.75-.24,5.63-.34,3.7-.21,7.74,.77,11.06-1.93,.26-.16,.48-.33,.67-.51,.51,2,.69,3.98,.01,6.04-.45,1.35-.16,2.64,1.16,3.42,1.53,.9,2.84,.19,4.06-.74,1.91-1.45,1.89-3.75,2.33-5.76,.24-1.13,.26-2.3,.75-3.26,.85,.33,1.78,.53,2.82,.55,2.99-.18,6.27,.73,8.58-2.2,4.14,18.14,7.75,36.41,14.27,53.91,3.61,11,7.17,22.01,10.86,32.97,.8,2.37,1.45,4.46-1.29,5.95Z"/>
  <path class="cls-9" d="M177.19,213.7c-.28,.07-.54,.23-.74,.45-2.29,2.51-5.42,1.68-8.29,1.85-1.04-.02-1.97-.22-2.82-.55,0-.02,.02-.04,.03-.06,.36-.71,.11-1.53-.58-1.93-2.15-1.25-2.8-3.99-4.42-5.77-.79-.86-1.07-2.93-2.85-1.75-1.44,.94-3.28,2.15-1.8,4.37,.99,1.48,1.09,3.08,1.12,4.74,.07,.23,.13,.47,.19,.7-.19,.18-.41,.35-.67,.51-3.32,2.7-7.36,1.72-11.06,1.93-1.78,.09-3.55,.19-5.32,.32-.2,.01-.41-.02-.6-.1-1.76-.71-3.72-1.02-5.9-.95-.02,0-.03,0-.05,.01-.86,.02-1.76,.12-2.68,.27-.04,0-.09,.01-.13,.01-1.26,.07-2.53,.13-3.78,.2h-.01c-4.44,.72-5.44-1.42-4.77-5.4,.94-5.56,1.71-11.15,2.42-16.75,.83-6.5,2.08-12.72-.64-19.49-2.92-7.31,0-15.1,1.78-22.5,1.09-4.5,2.43-9.05,4.49-13.17,2.63-5.29,3.24-11.11,5.37-16.49,1.92-4.82,4.85-8.91,9.08-11.97,.12-.08,.25-.16,.38-.21,2.51-.93,5.14-.74,7.74-.84,.13,0,.27,0,.39,.04,.92,.23,1.84,.47,2.78,.7h.01c6.47,2.16,8.11,7.86,9.75,13.47,4.4,15.01,6.79,30.42,9.06,45.86,1.72,11.65,3.37,23.31,4.77,35,.31,2.6,2.25,6.34-2.24,7.5Z"/>
  <path class="cls-3" d="M157.43,215.3c-.12,.16-.25,.31-.4,.45-.06-.23-.12-.47-.19-.7,.22,.08,.41,.16,.59,.25Z"/>
  <path class="cls-12" d="M150.44,235.92c-.32,1.31-.85,2.56-1.57,3.79-4.34,7.42-8.39,15.02-13.23,22.13-8.58,12.58-16.53,25.54-24.28,38.64-1.86,3.15-3.81,6.55-8.53,4.56-.03-.02-.06-.04-.09-.05,.16-.41,.17-.96,.18-1.5-2.97-1.79-5.94-3.58-8.91-5.38-2.94-5.5,.29-10.27,2.14-14.96,3.78-9.6,9.86-17.98,15.21-26.74,7.3-11.97,13.36-24.4,15.47-38.45h0c1.28-.08,2.57-.14,3.85-.21,.31,.78,.9,1.38,1.56,1.66,.36,.17,.75,.24,1.14,.19,6.84-.83,9.41,4.15,12.32,8.76,1.14,1.81,2.2,3.68,3.49,5.39,.41,.73,.82,1.45,1.25,2.17Z"/>
  <path class="cls-2" d="M133.43,217.47c-.92,.09-1.83,.19-2.75,.28,.95-.16,1.87-.26,2.75-.28Z"/>
  <path class="cls-5" d="M164.87,105.23c-.15-.18-.31-.34-.49-.49,.18,.12,.34,.27,.5,.44,.02,.02,.03,.03,.05,.05,3.55-7.24,1.29-14.15-1.19-21.06-4.42,.92-7.64,3.02-7.85,8.05-.05,1.17-.73,1.77-1.87,1.87h-.01c-.8-.16-.8-.93-1.11-1.46-.05-.07-.11-.14-.16-.21-1.53-2.43-3.13-1.24-4.74-.1,.24,3.87,3.29,8.28-2.09,11.12-.39,2.87-.79,5.74-1.18,8.61,2.63-1.05,5.41-.8,8.14-.93,.99,.25,1.97,.5,2.97,.75h.01c-.25-.9-.51-1.79-.76-2.7h0c.52-2.59,2.56-1.94,4.26-2.04,2.03-.11,4.33,.54,5.59-1.89l-.03,.03s-.02-.03-.04-.04Zm-11.9,2.08c0-.13,.02-.24,.05-.36,.03,.13,.05,.27,.06,.41-.04-.02-.07-.04-.11-.05Z"/>
  <path class="cls-4" d="M148,92.31h0s-.03,.02-.05,.03c-.03,0-.06,.01-.08,.02,.03-.04,.06-.09,.1-.13,0-.01,0-.01,.02-.02,0,.03,0,.07,.01,.1Z"/>
  <path class="cls-4" d="M154.01,94.09c-.8-.16-.8-.93-1.11-1.46,.36,.49,.74,.97,1.11,1.46Z"/>
  <path class="cls-4" d="M164.94,105.24l-.03,.03s-.02-.03-.04-.04c-.15-.18-.31-.34-.49-.49,.18,.12,.34,.27,.5,.44,.02,.02,.03,.03,.05,.05h.01Z"/>
  <path class="cls-15" d="M147.99,92.21s-.02,.01-.02,.02c-.04,.04-.07,.09-.1,.13,.02-.01,.05-.02,.08-.02,.02-.01,.03-.02,.05-.02h0s-.01-.08-.01-.11Zm4.91,.42c.31,.53,.31,1.3,1.11,1.46-.37-.49-.75-.97-1.11-1.46Z"/>
  <path class="cls-16" d="M99.73,310.87c-.46,.29-1,.54-1.61,.76-3.19-.05-6.05-1.46-9.06-2.27,.76-2.85,1.82-5.56,3.85-7.8,2.71,1.35,5.42,2.7,8.14,4.05,.29,.06,.54,.08,.74,.06,.48,2.4-.28,4.09-2.06,5.2Z"/>
  <path class="cls-14" d="M147.98,92.26h0s0-.03,0-.03c0-.01,0-.01,.02-.02,0,.03,0,.07,.01,.1-.01-.02-.01-.04-.02-.05Z"/>
  <path class="cls-5" d="M102.92,303.49c0,.54-.02,1.09-.18,1.5-.15,.38-.42,.64-.95,.68-.2,.02-.45,0-.74-.06-2.72-1.35-5.43-2.7-8.14-4.05,.36-1.15,.73-2.29,1.1-3.44h0c2.97,1.79,5.94,3.58,8.91,5.37Z"/>
  <path class="cls-10" d="M167.46,78.25c.06,2.61-2.54,3.85-3.72,5.92-4.42,.92-7.64,3.02-7.85,8.05-.05,1.17-.73,1.77-1.87,1.87h-.01c-.37-.49-.75-.97-1.11-1.46-.05-.07-.11-.14-.16-.21-1.53-2.43-3.13-1.24-4.74-.1h0s-.01-.08-.01-.11c-.01,.01-.02,.01-.02,.02-.04,.04-.07,.09-.1,.13,.02-.01,.05-.02,.08-.02,.02-.01,.03-.02,.05-.02,.24,3.87,3.29,8.28-2.09,11.12-.37-.68-.74-1.36-1.11-2.04-1.03-1.21-1.73-2.59-2-4.17-1.76-2.39-2.22-5.1-1.95-7.98-.04-1.69-.14-3.38,.86-4.85-.01-.02,.01-.04,.03-.05,.03-.07,.08-.13,.13-.2,3.93-6.98,10.44-9.81,17.92-10.8,2-.27,4.83-1.01,4.07,3.3-.54,3.09,2.78-.38,3.6,1.6Z"/>
  <path class="cls-15" d="M148,92.31h0s-.03,.02-.05,.03c.01-.03,.02-.05,.03-.08h0s.01-.04,.01-.05c0,.03,0,.07,.01,.1Z"/>
  <path class="cls-10" d="M219.68,320.64c-.12,.05-.25,.1-.37,.14-4.77,1.85-9.52,3.69-14.28,5.54-1.1,.43-2.2,.85-3.3,1.28-3.15,1.33-5.53,1.07-6.05-2.98,.07-.25,.13-.5,.2-.75,.27-1.04,.55-2.09,.82-3.14,2.17-1.33,4.33-2.67,6.51-4.01,.14-.08,.29-.17,.43-.26,1.4-1.21,2.91-2.13,4.87-1.81,3.39,.56,6.74,.77,10.21,.43,1.67-.16,4.24-.02,4.98,2.24,.59,1.78-3.03,2.74-4.02,3.32Z"/>
  <path class="cls-16" d="M203.64,316.46c-.14,.09-.29,.18-.43,.26-2.18,1.34-4.34,2.68-6.51,4.01-.34-.26-.62-.55-.86-.87-.97-1.27-1.33-2.92-2.24-4.23-.17-.66-.33-1.32-.5-1.98h0c2.24-1.49,4.61-2.7,7.12-3.6,.48-.18,.96-.34,1.45-.49,1.11,2.17,2.41,4.29,1.97,6.9Z"/>
  <path class="cls-5" d="M199.45,306.87c.38-.08,.75-.16,1.13-.24,.36,.98,.73,1.95,1.09,2.93-.49,.15-.97,.31-1.45,.49-2.51,.9-4.88,2.11-7.12,3.59h-.01c-.36-.42-.1-.11-.62-.8-.64-.89-1.42-3.01-1.71-3.28"/>
  <path class="cls-5" d="M157.43,215.3c-.12,.16-.25,.31-.4,.45-.06-.23-.12-.47-.19-.7,.22,.08,.41,.16,.59,.25Z"/>
  <path class="cls-10" d="M105.55,327.85c-.38-.16-.77-.35-1.16-.55-.58-.3-1.15-.63-1.71-.97l2.87,1.52Z"/>
  <path class="cls-6" d="M161.81,104.1c.43,.05,.87,.06,1.3,.12-.1-.02-.21-.03-.32-.03-.33-.01-.65-.04-.98-.09Z"/>
  <path class="cls-6" d="M163.42,104.27c.31,.07,.58,.2,.82,.37-.25-.17-.52-.29-.82-.37Z"/>
  <path class="cls-6" d="M164.88,105.18s.01,.03,.02,.05h-.03c-.15-.18-.31-.34-.49-.49,.18,.12,.34,.27,.5,.44Z"/>
  <path class="cls-6" d="M164.94,105.24l-.03,.03s-.01-.03-.01-.04c.01,0,.01,.01,.02,.01h.02Z"/>
  <path class="cls-7" d="M154.01,94.09c-.8-.16-.8-.93-1.11-1.46,.36,.49,.74,.97,1.11,1.46Z"/>
  <path class="cls-9" d="M125.89,218.06s22.32,2.25,31.5-.45c0,0,23.99,1.43,22.72-7.41"/>
  <path class="cls-5" d="M165.62,213.84c.38,.13,.47,.62,.2,.92-.2,.22-.35,.45-.47,.7-.49,.96-.51,2.13-.75,3.26-.44,2.01-.42,4.31-2.33,5.76-1.22,.93-2.53,1.64-4.06,.74-1.32-.78-1.61-2.07-1.16-3.42,.68-2.06,.5-4.04-.01-6.04l-.03-.23s-.16-.47-.16-.47c-.03-1.66-.13-3.26-1.12-4.74-1.48-2.22,.36-3.43,1.8-4.37,1.78-1.18,2.06,.89,2.85,1.75,1.82,1.99,2.42,5.18,5.25,6.15Z"/>
  <path class="cls-10" d="M109.93,327.57c-1.2,.89-2.33,.94-3.47,.62-.02,0-.03-.01-.05-.02-.28-.08-.57-.19-.86-.32l-2.87-1.52c-2.15-1.3-4.21-2.77-6.63-3.52l-3.08-1.64-8.47-4.5c-.87-.46-1.21-1.54-.74-2.42l.1-.2h.01c.93-2.07,1.47-5.4,5.19-4.69,3.01,.81,5.87,2.22,9.06,2.27,.61-.22,1.15-.47,1.61-.76,2.95,1.84,4.52,4.97,6.53,7.69,.51,.69,.89,1.47,1.24,2.26,.1,.21,.22,.41,.35,.61h0c.88,1.31,2.45,2.38,2.66,3.91,.1,.64-.05,1.37-.59,2.23Z"/>
  <path class="cls-10" d="M102.68,326.33l-6.63-3.52c2.42,.75,4.48,2.22,6.63,3.52Z"/>
  <path class="cls-10" d="M106.41,328.17c-.18-.01-.38-.07-.56-.16l-.3-.16c.29,.13,.58,.24,.86,.32Z"/>
</svg>